<svg width="52" height="52" viewBox="0 0 52 52" fill="none" xmlns="http://www.w3.org/2000/svg">
<rect x="0.5" y="0.5" width="51" height="51" rx="9.5" stroke="black" stroke-opacity="0.1"/>
<g clip-path="url(#clip0_191_791)">
<path d="M29.9774 16.01C29.9349 15.9625 28.4037 16.0288 27.0712 17.475C25.7387 18.92 25.9437 20.5775 25.9737 20.62C26.0037 20.6625 27.8737 20.7288 29.0674 19.0475C30.2612 17.3663 30.0199 16.0588 29.9774 16.01ZM34.1199 30.6763C34.0599 30.5563 31.2137 29.1338 31.4787 26.3988C31.7437 23.6625 33.5724 22.9125 33.6012 22.8313C33.6299 22.75 32.8549 21.8438 32.0337 21.385C31.4307 21.0616 30.7633 20.8763 30.0799 20.8425C29.9449 20.8388 29.4762 20.7238 28.5124 20.9875C27.8774 21.1613 26.4462 21.7238 26.0524 21.7463C25.6574 21.7688 24.4824 21.0938 23.2187 20.915C22.4099 20.7588 21.5524 21.0788 20.9387 21.325C20.3262 21.57 19.1612 22.2675 18.3462 24.1213C17.5312 25.9738 17.9574 28.9088 18.2624 29.8213C18.5674 30.7325 19.0437 32.2263 19.8537 33.3163C20.5737 34.5463 21.5287 35.4 21.9274 35.69C22.3262 35.98 23.4512 36.1725 24.2312 35.7738C24.8587 35.3888 25.9912 35.1675 26.4387 35.1838C26.8849 35.2 27.7649 35.3763 28.6662 35.8575C29.3799 36.1038 30.0549 36.0013 30.7312 35.7263C31.4074 35.45 32.3862 34.4025 33.5287 32.2788C33.9624 31.2913 34.1599 30.7575 34.1199 30.6763Z" fill="black"/>
<path d="M29.9774 16.01C29.9349 15.9625 28.4037 16.0288 27.0712 17.475C25.7387 18.92 25.9437 20.5775 25.9737 20.62C26.0037 20.6625 27.8737 20.7288 29.0674 19.0475C30.2612 17.3663 30.0199 16.0588 29.9774 16.01ZM34.1199 30.6763C34.0599 30.5563 31.2137 29.1338 31.4787 26.3988C31.7437 23.6625 33.5724 22.9125 33.6012 22.8313C33.6299 22.75 32.8549 21.8438 32.0337 21.385C31.4307 21.0616 30.7633 20.8763 30.0799 20.8425C29.9449 20.8388 29.4762 20.7238 28.5124 20.9875C27.8774 21.1613 26.4462 21.7238 26.0524 21.7463C25.6574 21.7688 24.4824 21.0938 23.2187 20.915C22.4099 20.7588 21.5524 21.0788 20.9387 21.325C20.3262 21.57 19.1612 22.2675 18.3462 24.1213C17.5312 25.9738 17.9574 28.9088 18.2624 29.8213C18.5674 30.7325 19.0437 32.2263 19.8537 33.3163C20.5737 34.5463 21.5287 35.4 21.9274 35.69C22.3262 35.98 23.4512 36.1725 24.2312 35.7738C24.8587 35.3888 25.9912 35.1675 26.4387 35.1838C26.8849 35.2 27.7649 35.3763 28.6662 35.8575C29.3799 36.1038 30.0549 36.0013 30.7312 35.7263C31.4074 35.45 32.3862 34.4025 33.5287 32.2788C33.9624 31.2913 34.1599 30.7575 34.1199 30.6763Z" fill="black"/>
</g>
<defs>
<clipPath id="clip0_191_791">
<rect width="20" height="20" fill="white" transform="translate(16 16)"/>
</clipPath>
</defs>
</svg>
