<svg width="52" height="52" viewBox="0 0 52 52" fill="none" xmlns="http://www.w3.org/2000/svg">
<rect x="0.5" y="0.5" width="51" height="51" rx="9.5" stroke="black" stroke-opacity="0.1"/>
<g clip-path="url(#clip0_191_798)">
<path d="M36 26C36 20.4772 31.5228 16 26 16C20.4772 16 16 20.4772 16 26C16 30.9913 19.6569 35.1284 24.4375 35.8785V28.8906H21.8984V26H24.4375V23.7969C24.4375 21.2906 25.9305 19.9063 28.2147 19.9063C29.3088 19.9063 30.4531 20.1016 30.4531 20.1016V22.5625H29.1922C27.9499 22.5625 27.5625 23.3334 27.5625 24.1242V26H30.3359L29.8926 28.8906H27.5625V35.8785C32.3431 35.1284 36 30.9913 36 26Z" fill="#1877F2"/>
<path d="M29.8926 28.8906L30.3359 26H27.5625V24.1242C27.5625 23.3333 27.9499 22.5625 29.1922 22.5625H30.4531V20.1016C30.4531 20.1016 29.3088 19.9062 28.2146 19.9062C25.9305 19.9062 24.4375 21.2906 24.4375 23.7969V26H21.8984V28.8906H24.4375V35.8785C24.9544 35.9595 25.4768 36.0001 26 36C26.5232 36.0002 27.0456 35.9595 27.5625 35.8785V28.8906H29.8926Z" fill="white"/>
</g>
<defs>
<clipPath id="clip0_191_798">
<rect width="20" height="20" fill="white" transform="translate(16 16)"/>
</clipPath>
</defs>
</svg>
