<svg width="52" height="52" viewBox="0 0 52 52" fill="none" xmlns="http://www.w3.org/2000/svg">
<rect x="0.5" y="0.5" width="51" height="51" rx="9.5" stroke="black" stroke-opacity="0.1"/>
<g clip-path="url(#clip0_191_783)">
<path d="M35.9895 26.1868C35.9895 25.3674 35.9214 24.7695 35.7742 24.1494H26.1992V27.8477H31.8195C31.7062 28.7668 31.0943 30.1509 29.7346 31.081L29.7155 31.2048L32.7429 33.4967L32.9527 33.5171C34.8789 31.7786 35.9895 29.2208 35.9895 26.1868Z" fill="#4285F4"/>
<path d="M26.1993 35.9312C28.9527 35.9312 31.2643 35.0453 32.9527 33.5173L29.7346 31.0812C28.8734 31.6681 27.7176 32.0778 26.1993 32.0778C23.5024 32.0778 21.2135 30.3394 20.3976 27.9365L20.278 27.9464L17.13 30.3271L17.0889 30.439C18.7659 33.6944 22.2106 35.9312 26.1993 35.9312Z" fill="#34A853"/>
<path d="M20.3975 27.9363C20.1822 27.3163 20.0576 26.6518 20.0576 25.9653C20.0576 25.2788 20.1822 24.6144 20.3861 23.9944L20.3804 23.8623L17.193 21.4434L17.0888 21.4918C16.3976 22.8427 16.001 24.3598 16.001 25.9653C16.001 27.5709 16.3976 29.0879 17.0888 30.4388L20.3975 27.9363Z" fill="#FBBC05"/>
<path d="M26.1993 19.8534C28.1142 19.8534 29.406 20.6617 30.1425 21.3372L33.0207 18.5911C31.253 16.9855 28.9527 16 26.1993 16C22.2106 16 18.7659 18.2367 17.0889 21.4921L20.3863 23.9947C21.2135 21.5918 23.5024 19.8534 26.1993 19.8534Z" fill="#EB4335"/>
</g>
<defs>
<clipPath id="clip0_191_783">
<rect width="20" height="20" fill="white" transform="translate(16 16)"/>
</clipPath>
</defs>
</svg>
