<svg width="77" height="20" viewBox="0 0 77 20" fill="none" xmlns="http://www.w3.org/2000/svg">
<path d="M28.6803 9.812C28.6803 8.996 28.8683 8.264 29.2443 7.616C29.6283 6.968 30.1443 6.464 30.7923 6.104C31.4483 5.736 32.1643 5.552 32.9403 5.552C33.8283 5.552 34.6163 5.772 35.3043 6.212C36.0003 6.644 36.5043 7.26 36.8163 8.06H35.1723C34.9563 7.62 34.6563 7.292 34.2723 7.076C33.8883 6.86 33.4443 6.752 32.9403 6.752C32.3883 6.752 31.8963 6.876 31.4643 7.124C31.0323 7.372 30.6923 7.728 30.4443 8.192C30.2043 8.656 30.0843 9.196 30.0843 9.812C30.0843 10.428 30.2043 10.968 30.4443 11.432C30.6923 11.896 31.0323 12.256 31.4643 12.512C31.8963 12.76 32.3883 12.884 32.9403 12.884C33.4443 12.884 33.8883 12.776 34.2723 12.56C34.6563 12.344 34.9563 12.016 35.1723 11.576H36.8163C36.5043 12.376 36.0003 12.992 35.3043 13.424C34.6163 13.856 33.8283 14.072 32.9403 14.072C32.1563 14.072 31.4403 13.892 30.7923 13.532C30.1443 13.164 29.6283 12.656 29.2443 12.008C28.8683 11.36 28.6803 10.628 28.6803 9.812ZM37.6616 10.664C37.6616 10 37.7976 9.412 38.0696 8.9C38.3496 8.388 38.7256 7.992 39.1976 7.712C39.6776 7.424 40.2056 7.28 40.7816 7.28C41.3016 7.28 41.7536 7.384 42.1376 7.592C42.5296 7.792 42.8416 8.044 43.0736 8.348V7.388H44.4536V14H43.0736V13.016C42.8416 13.328 42.5256 13.588 42.1256 13.796C41.7256 14.004 41.2696 14.108 40.7576 14.108C40.1896 14.108 39.6696 13.964 39.1976 13.676C38.7256 13.38 38.3496 12.972 38.0696 12.452C37.7976 11.924 37.6616 11.328 37.6616 10.664ZM43.0736 10.688C43.0736 10.232 42.9776 9.836 42.7856 9.5C42.6016 9.164 42.3576 8.908 42.0536 8.732C41.7496 8.556 41.4216 8.468 41.0696 8.468C40.7176 8.468 40.3896 8.556 40.0856 8.732C39.7816 8.9 39.5336 9.152 39.3416 9.488C39.1576 9.816 39.0656 10.208 39.0656 10.664C39.0656 11.12 39.1576 11.52 39.3416 11.864C39.5336 12.208 39.7816 12.472 40.0856 12.656C40.3976 12.832 40.7256 12.92 41.0696 12.92C41.4216 12.92 41.7496 12.832 42.0536 12.656C42.3576 12.48 42.6016 12.224 42.7856 11.888C42.9776 11.544 43.0736 11.144 43.0736 10.688ZM53.9544 7.28C54.4744 7.28 54.9384 7.388 55.3464 7.604C55.7624 7.82 56.0864 8.14 56.3184 8.564C56.5584 8.988 56.6784 9.5 56.6784 10.1V14H55.3224V10.304C55.3224 9.712 55.1744 9.26 54.8784 8.948C54.5824 8.628 54.1784 8.468 53.6664 8.468C53.1544 8.468 52.7464 8.628 52.4424 8.948C52.1464 9.26 51.9984 9.712 51.9984 10.304V14H50.6424V10.304C50.6424 9.712 50.4944 9.26 50.1984 8.948C49.9024 8.628 49.4984 8.468 48.9864 8.468C48.4744 8.468 48.0664 8.628 47.7624 8.948C47.4664 9.26 47.3184 9.712 47.3184 10.304V14H45.9504V7.388H47.3184V8.144C47.5424 7.872 47.8264 7.66 48.1704 7.508C48.5144 7.356 48.8824 7.28 49.2744 7.28C49.8024 7.28 50.2744 7.392 50.6904 7.616C51.1064 7.84 51.4264 8.164 51.6504 8.588C51.8504 8.188 52.1624 7.872 52.5864 7.64C53.0104 7.4 53.4664 7.28 53.9544 7.28ZM64.1791 10.532C64.1791 10.78 64.1631 11.004 64.1311 11.204H59.0791C59.1191 11.732 59.3151 12.156 59.6671 12.476C60.0191 12.796 60.4511 12.956 60.9631 12.956C61.6991 12.956 62.2191 12.648 62.5231 12.032H63.9991C63.7991 12.64 63.4351 13.14 62.9071 13.532C62.3871 13.916 61.7391 14.108 60.9631 14.108C60.3311 14.108 59.7631 13.968 59.2591 13.688C58.7631 13.4 58.3711 13 58.0831 12.488C57.8031 11.968 57.6631 11.368 57.6631 10.688C57.6631 10.008 57.7991 9.412 58.0711 8.9C58.3511 8.38 58.7391 7.98 59.2351 7.7C59.7391 7.42 60.3151 7.28 60.9631 7.28C61.5871 7.28 62.1431 7.416 62.6311 7.688C63.1191 7.96 63.4991 8.344 63.7711 8.84C64.0431 9.328 64.1791 9.892 64.1791 10.532ZM62.7511 10.1C62.7431 9.596 62.5631 9.192 62.2111 8.888C61.8591 8.584 61.4231 8.432 60.9031 8.432C60.4311 8.432 60.0271 8.584 59.6911 8.888C59.3551 9.184 59.1551 9.588 59.0911 10.1H62.7511ZM66.5934 8.348C66.7934 8.012 67.0574 7.752 67.3854 7.568C67.7214 7.376 68.1174 7.28 68.5734 7.28V8.696H68.2254C67.6894 8.696 67.2814 8.832 67.0014 9.104C66.7294 9.376 66.5934 9.848 66.5934 10.52V14H65.2254V7.388H66.5934V8.348ZM69.0749 10.664C69.0749 10 69.2109 9.412 69.4829 8.9C69.7629 8.388 70.1389 7.992 70.6109 7.712C71.0909 7.424 71.6189 7.28 72.1949 7.28C72.7149 7.28 73.1669 7.384 73.5509 7.592C73.9429 7.792 74.2549 8.044 74.4869 8.348V7.388H75.8669V14H74.4869V13.016C74.2549 13.328 73.9389 13.588 73.5389 13.796C73.1389 14.004 72.6829 14.108 72.1709 14.108C71.6029 14.108 71.0829 13.964 70.6109 13.676C70.1389 13.38 69.7629 12.972 69.4829 12.452C69.2109 11.924 69.0749 11.328 69.0749 10.664ZM74.4869 10.688C74.4869 10.232 74.3909 9.836 74.1989 9.5C74.0149 9.164 73.7709 8.908 73.4669 8.732C73.1629 8.556 72.8349 8.468 72.4829 8.468C72.1309 8.468 71.8029 8.556 71.4989 8.732C71.1949 8.9 70.9469 9.152 70.7549 9.488C70.5709 9.816 70.4789 10.208 70.4789 10.664C70.4789 11.12 70.5709 11.52 70.7549 11.864C70.9469 12.208 71.1949 12.472 71.4989 12.656C71.8109 12.832 72.1389 12.92 72.4829 12.92C72.8349 12.92 73.1629 12.832 73.4669 12.656C73.7709 12.48 74.0149 12.224 74.1989 11.888C74.3909 11.544 74.4869 11.144 74.4869 10.688Z" fill="#010101"/>
<path d="M16.25 4.375H14.0844L13.0195 2.77813C12.9625 2.69262 12.8852 2.6225 12.7946 2.57399C12.704 2.52548 12.6028 2.50006 12.5 2.5H7.5C7.39721 2.50006 7.29602 2.52548 7.2054 2.57399C7.11478 2.6225 7.03752 2.69262 6.98047 2.77813L5.91484 4.375H3.75C3.25272 4.375 2.77581 4.57254 2.42417 4.92417C2.07254 5.27581 1.875 5.75272 1.875 6.25V15C1.875 15.4973 2.07254 15.9742 2.42417 16.3258C2.77581 16.6775 3.25272 16.875 3.75 16.875H16.25C16.7473 16.875 17.2242 16.6775 17.5758 16.3258C17.9275 15.9742 18.125 15.4973 18.125 15V6.25C18.125 5.75272 17.9275 5.27581 17.5758 4.92417C17.2242 4.57254 16.7473 4.375 16.25 4.375ZM12.8125 10.3125C12.8125 10.8688 12.6475 11.4125 12.3385 11.875C12.0295 12.3376 11.5902 12.698 11.0763 12.9109C10.5624 13.1238 9.99688 13.1795 9.45131 13.071C8.90574 12.9624 8.4046 12.6946 8.01126 12.3012C7.61793 11.9079 7.35006 11.4068 7.24154 10.8612C7.13302 10.3156 7.18872 9.75012 7.40159 9.2362C7.61446 8.72229 7.97495 8.28303 8.43746 7.97399C8.89997 7.66495 9.44374 7.5 10 7.5C10.7459 7.5 11.4613 7.79632 11.9887 8.32376C12.5162 8.85121 12.8125 9.56658 12.8125 10.3125Z" fill="black"/>
</svg>
