<svg width="78" height="20" viewBox="0 0 78 20" fill="none" xmlns="http://www.w3.org/2000/svg">
<path d="M30.6246 12.896H33.4446V14H29.2566V5.66H30.6246V12.896ZM37.1567 14.108C36.5327 14.108 35.9687 13.968 35.4647 13.688C34.9607 13.4 34.5647 13 34.2767 12.488C33.9887 11.968 33.8447 11.368 33.8447 10.688C33.8447 10.016 33.9927 9.42 34.2887 8.9C34.5847 8.38 34.9887 7.98 35.5007 7.7C36.0127 7.42 36.5847 7.28 37.2167 7.28C37.8487 7.28 38.4207 7.42 38.9327 7.7C39.4447 7.98 39.8487 8.38 40.1447 8.9C40.4407 9.42 40.5887 10.016 40.5887 10.688C40.5887 11.36 40.4367 11.956 40.1327 12.476C39.8287 12.996 39.4127 13.4 38.8847 13.688C38.3647 13.968 37.7887 14.108 37.1567 14.108ZM37.1567 12.92C37.5087 12.92 37.8367 12.836 38.1407 12.668C38.4527 12.5 38.7047 12.248 38.8967 11.912C39.0887 11.576 39.1847 11.168 39.1847 10.688C39.1847 10.208 39.0927 9.804 38.9087 9.476C38.7247 9.14 38.4807 8.888 38.1767 8.72C37.8727 8.552 37.5447 8.468 37.1927 8.468C36.8407 8.468 36.5127 8.552 36.2087 8.72C35.9127 8.888 35.6767 9.14 35.5007 9.476C35.3247 9.804 35.2367 10.208 35.2367 10.688C35.2367 11.4 35.4167 11.952 35.7767 12.344C36.1447 12.728 36.6047 12.92 37.1567 12.92ZM41.185 10.688C41.185 10.008 41.321 9.412 41.593 8.9C41.873 8.38 42.257 7.98 42.745 7.7C43.233 7.42 43.793 7.28 44.425 7.28C45.225 7.28 45.885 7.472 46.405 7.856C46.933 8.232 47.289 8.772 47.473 9.476H45.997C45.877 9.148 45.685 8.892 45.421 8.708C45.157 8.524 44.825 8.432 44.425 8.432C43.865 8.432 43.417 8.632 43.081 9.032C42.753 9.424 42.589 9.976 42.589 10.688C42.589 11.4 42.753 11.956 43.081 12.356C43.417 12.756 43.865 12.956 44.425 12.956C45.217 12.956 45.741 12.608 45.997 11.912H47.473C47.281 12.584 46.921 13.12 46.393 13.52C45.865 13.912 45.209 14.108 44.425 14.108C43.793 14.108 43.233 13.968 42.745 13.688C42.257 13.4 41.873 13 41.593 12.488C41.321 11.968 41.185 11.368 41.185 10.688ZM48.0803 10.664C48.0803 10 48.2163 9.412 48.4883 8.9C48.7683 8.388 49.1443 7.992 49.6163 7.712C50.0963 7.424 50.6243 7.28 51.2003 7.28C51.7203 7.28 52.1723 7.384 52.5563 7.592C52.9483 7.792 53.2603 8.044 53.4923 8.348V7.388H54.8723V14H53.4923V13.016C53.2603 13.328 52.9443 13.588 52.5443 13.796C52.1443 14.004 51.6883 14.108 51.1763 14.108C50.6083 14.108 50.0883 13.964 49.6163 13.676C49.1443 13.38 48.7683 12.972 48.4883 12.452C48.2163 11.924 48.0803 11.328 48.0803 10.664ZM53.4923 10.688C53.4923 10.232 53.3963 9.836 53.2043 9.5C53.0203 9.164 52.7763 8.908 52.4723 8.732C52.1683 8.556 51.8403 8.468 51.4883 8.468C51.1363 8.468 50.8083 8.556 50.5043 8.732C50.2003 8.9 49.9523 9.152 49.7603 9.488C49.5763 9.816 49.4843 10.208 49.4843 10.664C49.4843 11.12 49.5763 11.52 49.7603 11.864C49.9523 12.208 50.2003 12.472 50.5043 12.656C50.8163 12.832 51.1443 12.92 51.4883 12.92C51.8403 12.92 52.1683 12.832 52.4723 12.656C52.7763 12.48 53.0203 12.224 53.2043 11.888C53.3963 11.544 53.4923 11.144 53.4923 10.688ZM57.9651 8.504V12.164C57.9651 12.412 58.0211 12.592 58.1331 12.704C58.2531 12.808 58.4531 12.86 58.7331 12.86H59.5731V14H58.4931C57.8771 14 57.4051 13.856 57.0771 13.568C56.7491 13.28 56.5851 12.812 56.5851 12.164V8.504H55.8051V7.388H56.5851V5.744H57.9651V7.388H59.5731V8.504H57.9651ZM61.23 6.512C60.982 6.512 60.774 6.428 60.606 6.26C60.438 6.092 60.354 5.884 60.354 5.636C60.354 5.388 60.438 5.18 60.606 5.012C60.774 4.844 60.982 4.76 61.23 4.76C61.47 4.76 61.674 4.844 61.842 5.012C62.01 5.18 62.094 5.388 62.094 5.636C62.094 5.884 62.01 6.092 61.842 6.26C61.674 6.428 61.47 6.512 61.23 6.512ZM61.902 7.388V14H60.534V7.388H61.902ZM66.266 14.108C65.642 14.108 65.078 13.968 64.574 13.688C64.07 13.4 63.674 13 63.386 12.488C63.098 11.968 62.954 11.368 62.954 10.688C62.954 10.016 63.102 9.42 63.398 8.9C63.694 8.38 64.098 7.98 64.61 7.7C65.122 7.42 65.694 7.28 66.326 7.28C66.958 7.28 67.53 7.42 68.042 7.7C68.554 7.98 68.958 8.38 69.254 8.9C69.55 9.42 69.698 10.016 69.698 10.688C69.698 11.36 69.546 11.956 69.242 12.476C68.938 12.996 68.522 13.4 67.994 13.688C67.474 13.968 66.898 14.108 66.266 14.108ZM66.266 12.92C66.618 12.92 66.946 12.836 67.25 12.668C67.562 12.5 67.814 12.248 68.006 11.912C68.198 11.576 68.294 11.168 68.294 10.688C68.294 10.208 68.202 9.804 68.018 9.476C67.834 9.14 67.59 8.888 67.286 8.72C66.982 8.552 66.654 8.468 66.302 8.468C65.95 8.468 65.622 8.552 65.318 8.72C65.022 8.888 64.786 9.14 64.61 9.476C64.434 9.804 64.346 10.208 64.346 10.688C64.346 11.4 64.526 11.952 64.886 12.344C65.254 12.728 65.714 12.92 66.266 12.92ZM74.0864 7.28C74.6064 7.28 75.0704 7.388 75.4784 7.604C75.8944 7.82 76.2184 8.14 76.4504 8.564C76.6824 8.988 76.7984 9.5 76.7984 10.1V14H75.4424V10.304C75.4424 9.712 75.2944 9.26 74.9984 8.948C74.7024 8.628 74.2984 8.468 73.7864 8.468C73.2744 8.468 72.8664 8.628 72.5624 8.948C72.2664 9.26 72.1184 9.712 72.1184 10.304V14H70.7504V7.388H72.1184V8.144C72.3424 7.872 72.6264 7.66 72.9704 7.508C73.3224 7.356 73.6944 7.28 74.0864 7.28Z" fill="#010101"/>
<path d="M10 8.75C10.6904 8.75 11.25 8.19036 11.25 7.5C11.25 6.80964 10.6904 6.25 10 6.25C9.30964 6.25 8.75 6.80964 8.75 7.5C8.75 8.19036 9.30964 8.75 10 8.75Z" fill="black"/>
<path d="M10 1.25C6.55391 1.25 3.75 3.93164 3.75 7.22656C3.75 8.7957 4.46523 10.8824 5.87578 13.4289C7.00859 15.4734 8.31914 17.3223 9.00078 18.2422C9.11596 18.3994 9.26656 18.5272 9.44037 18.6153C9.61418 18.7034 9.8063 18.7493 10.0012 18.7493C10.196 18.7493 10.3882 18.7034 10.562 18.6153C10.7358 18.5272 10.8864 18.3994 11.0016 18.2422C11.682 17.3223 12.9938 15.4734 14.1266 13.4289C15.5348 10.8832 16.25 8.79648 16.25 7.22656C16.25 3.93164 13.4461 1.25 10 1.25ZM10 10C9.50555 10 9.0222 9.85338 8.61107 9.57867C8.19995 9.30397 7.87952 8.91352 7.6903 8.45671C7.50108 7.99989 7.45157 7.49723 7.54804 7.01227C7.6445 6.52732 7.8826 6.08186 8.23223 5.73223C8.58186 5.3826 9.02732 5.1445 9.51227 5.04804C9.99723 4.95157 10.4999 5.00108 10.9567 5.1903C11.4135 5.37952 11.804 5.69995 12.0787 6.11107C12.3534 6.5222 12.5 7.00555 12.5 7.5C12.4993 8.16282 12.2357 8.79828 11.767 9.26697C11.2983 9.73565 10.6628 9.99928 10 10Z" fill="black"/>
</svg>
