<svg width="113" height="20" viewBox="0 0 113 20" fill="none" xmlns="http://www.w3.org/2000/svg">
<path d="M35.0843 8.144C35.0843 8.568 34.9843 8.968 34.7843 9.344C34.5843 9.72 34.2643 10.028 33.8243 10.268C33.3843 10.5 32.8203 10.616 32.1323 10.616H30.6203V14H29.2523V5.66H32.1323C32.7723 5.66 33.3123 5.772 33.7523 5.996C34.2003 6.212 34.5323 6.508 34.7483 6.884C34.9723 7.26 35.0843 7.68 35.0843 8.144ZM32.1323 9.5C32.6523 9.5 33.0403 9.384 33.2963 9.152C33.5523 8.912 33.6803 8.576 33.6803 8.144C33.6803 7.232 33.1643 6.776 32.1323 6.776H30.6203V9.5H32.1323ZM39.5091 7.28C40.0131 7.28 40.4611 7.388 40.8531 7.604C41.2531 7.82 41.5651 8.14 41.7891 8.564C42.0211 8.988 42.1371 9.5 42.1371 10.1V14H40.7811V10.304C40.7811 9.712 40.6331 9.26 40.3371 8.948C40.0411 8.628 39.6371 8.468 39.1251 8.468C38.6131 8.468 38.2051 8.628 37.9011 8.948C37.6051 9.26 37.4571 9.712 37.4571 10.304V14H36.0891V5.12H37.4571V8.156C37.6891 7.876 37.9811 7.66 38.3331 7.508C38.6931 7.356 39.0851 7.28 39.5091 7.28ZM46.45 14.108C45.826 14.108 45.262 13.968 44.758 13.688C44.254 13.4 43.858 13 43.57 12.488C43.282 11.968 43.138 11.368 43.138 10.688C43.138 10.016 43.286 9.42 43.582 8.9C43.878 8.38 44.282 7.98 44.794 7.7C45.306 7.42 45.878 7.28 46.51 7.28C47.142 7.28 47.714 7.42 48.226 7.7C48.738 7.98 49.142 8.38 49.438 8.9C49.734 9.42 49.882 10.016 49.882 10.688C49.882 11.36 49.73 11.956 49.426 12.476C49.122 12.996 48.706 13.4 48.178 13.688C47.658 13.968 47.082 14.108 46.45 14.108ZM46.45 12.92C46.802 12.92 47.13 12.836 47.434 12.668C47.746 12.5 47.998 12.248 48.19 11.912C48.382 11.576 48.478 11.168 48.478 10.688C48.478 10.208 48.386 9.804 48.202 9.476C48.018 9.14 47.774 8.888 47.47 8.72C47.166 8.552 46.838 8.468 46.486 8.468C46.134 8.468 45.806 8.552 45.502 8.72C45.206 8.888 44.97 9.14 44.794 9.476C44.618 9.804 44.53 10.208 44.53 10.688C44.53 11.4 44.71 11.952 45.07 12.344C45.438 12.728 45.898 12.92 46.45 12.92ZM52.5304 8.504V12.164C52.5304 12.412 52.5864 12.592 52.6984 12.704C52.8184 12.808 53.0184 12.86 53.2984 12.86H54.1384V14H53.0584C52.4424 14 51.9704 13.856 51.6424 13.568C51.3144 13.28 51.1504 12.812 51.1504 12.164V8.504H50.3704V7.388H51.1504V5.744H52.5304V7.388H54.1384V8.504H52.5304ZM57.9672 14.108C57.3432 14.108 56.7792 13.968 56.2752 13.688C55.7712 13.4 55.3752 13 55.0872 12.488C54.7992 11.968 54.6552 11.368 54.6552 10.688C54.6552 10.016 54.8032 9.42 55.0992 8.9C55.3952 8.38 55.7992 7.98 56.3112 7.7C56.8232 7.42 57.3952 7.28 58.0272 7.28C58.6592 7.28 59.2312 7.42 59.7432 7.7C60.2552 7.98 60.6592 8.38 60.9552 8.9C61.2512 9.42 61.3992 10.016 61.3992 10.688C61.3992 11.36 61.2472 11.956 60.9432 12.476C60.6392 12.996 60.2232 13.4 59.6952 13.688C59.1752 13.968 58.5992 14.108 57.9672 14.108ZM57.9672 12.92C58.3192 12.92 58.6472 12.836 58.9512 12.668C59.2632 12.5 59.5152 12.248 59.7072 11.912C59.8992 11.576 59.9952 11.168 59.9952 10.688C59.9952 10.208 59.9032 9.804 59.7192 9.476C59.5352 9.14 59.2912 8.888 58.9872 8.72C58.6832 8.552 58.3552 8.468 58.0032 8.468C57.6512 8.468 57.3232 8.552 57.0192 8.72C56.7232 8.888 56.4872 9.14 56.3112 9.476C56.1352 9.804 56.0472 10.208 56.0472 10.688C56.0472 11.4 56.2272 11.952 56.5872 12.344C56.9552 12.728 57.4152 12.92 57.9672 12.92ZM64.8516 14.108C64.3316 14.108 63.8636 14.016 63.4476 13.832C63.0396 13.64 62.7156 13.384 62.4756 13.064C62.2356 12.736 62.1076 12.372 62.0916 11.972H63.5076C63.5316 12.252 63.6636 12.488 63.9036 12.68C64.1516 12.864 64.4596 12.956 64.8276 12.956C65.2116 12.956 65.5076 12.884 65.7156 12.74C65.9316 12.588 66.0396 12.396 66.0396 12.164C66.0396 11.916 65.9196 11.732 65.6796 11.612C65.4476 11.492 65.0756 11.36 64.5636 11.216C64.0676 11.08 63.6636 10.948 63.3516 10.82C63.0396 10.692 62.7676 10.496 62.5356 10.232C62.3116 9.968 62.1996 9.62 62.1996 9.188C62.1996 8.836 62.3036 8.516 62.5116 8.228C62.7196 7.932 63.0156 7.7 63.3996 7.532C63.7916 7.364 64.2396 7.28 64.7436 7.28C65.4956 7.28 66.0996 7.472 66.5556 7.856C67.0196 8.232 67.2676 8.748 67.2996 9.404H65.9316C65.9076 9.108 65.7876 8.872 65.5716 8.696C65.3556 8.52 65.0636 8.432 64.6956 8.432C64.3356 8.432 64.0596 8.5 63.8676 8.636C63.6756 8.772 63.5796 8.952 63.5796 9.176C63.5796 9.352 63.6436 9.5 63.7716 9.62C63.8996 9.74 64.0556 9.836 64.2396 9.908C64.4236 9.972 64.6956 10.056 65.0556 10.16C65.5356 10.288 65.9276 10.42 66.2316 10.556C66.5436 10.684 66.8116 10.876 67.0356 11.132C67.2596 11.388 67.3756 11.728 67.3836 12.152C67.3836 12.528 67.2796 12.864 67.0716 13.16C66.8636 13.456 66.5676 13.688 66.1836 13.856C65.8076 14.024 65.3636 14.108 64.8516 14.108ZM75.8189 2.672L72.5549 16.1H71.2109L74.4629 2.672H75.8189ZM87.2482 5.66L84.1162 14H82.5322L79.3882 5.66H80.8522L83.3242 12.596L85.8082 5.66H87.2482ZM88.7882 6.512C88.5402 6.512 88.3322 6.428 88.1642 6.26C87.9962 6.092 87.9122 5.884 87.9122 5.636C87.9122 5.388 87.9962 5.18 88.1642 5.012C88.3322 4.844 88.5402 4.76 88.7882 4.76C89.0282 4.76 89.2322 4.844 89.4002 5.012C89.5682 5.18 89.6522 5.388 89.6522 5.636C89.6522 5.884 89.5682 6.092 89.4002 6.26C89.2322 6.428 89.0282 6.512 88.7882 6.512ZM89.4602 7.388V14H88.0922V7.388H89.4602ZM90.5003 10.664C90.5003 10 90.6363 9.412 90.9083 8.9C91.1883 8.388 91.5643 7.992 92.0363 7.712C92.5163 7.424 93.0483 7.28 93.6323 7.28C94.0643 7.28 94.4883 7.376 94.9043 7.568C95.3283 7.752 95.6643 8 95.9123 8.312V5.12H97.2923V14H95.9123V13.004C95.6883 13.324 95.3763 13.588 94.9763 13.796C94.5843 14.004 94.1323 14.108 93.6203 14.108C93.0443 14.108 92.5163 13.964 92.0363 13.676C91.5643 13.38 91.1883 12.972 90.9083 12.452C90.6363 11.924 90.5003 11.328 90.5003 10.664ZM95.9123 10.688C95.9123 10.232 95.8163 9.836 95.6243 9.5C95.4403 9.164 95.1963 8.908 94.8923 8.732C94.5883 8.556 94.2603 8.468 93.9083 8.468C93.5563 8.468 93.2283 8.556 92.9243 8.732C92.6203 8.9 92.3723 9.152 92.1803 9.488C91.9963 9.816 91.9043 10.208 91.9043 10.664C91.9043 11.12 91.9963 11.52 92.1803 11.864C92.3723 12.208 92.6203 12.472 92.9243 12.656C93.2363 12.832 93.5643 12.92 93.9083 12.92C94.2603 12.92 94.5883 12.832 94.8923 12.656C95.1963 12.48 95.4403 12.224 95.6243 11.888C95.8163 11.544 95.9123 11.144 95.9123 10.688ZM104.849 10.532C104.849 10.78 104.833 11.004 104.801 11.204H99.7491C99.7891 11.732 99.9851 12.156 100.337 12.476C100.689 12.796 101.121 12.956 101.633 12.956C102.369 12.956 102.889 12.648 103.193 12.032H104.669C104.469 12.64 104.105 13.14 103.577 13.532C103.057 13.916 102.409 14.108 101.633 14.108C101.001 14.108 100.433 13.968 99.9291 13.688C99.4331 13.4 99.0411 13 98.7531 12.488C98.4731 11.968 98.3331 11.368 98.3331 10.688C98.3331 10.008 98.4691 9.412 98.7411 8.9C99.0211 8.38 99.4091 7.98 99.9051 7.7C100.409 7.42 100.985 7.28 101.633 7.28C102.257 7.28 102.813 7.416 103.301 7.688C103.789 7.96 104.169 8.344 104.441 8.84C104.713 9.328 104.849 9.892 104.849 10.532ZM103.421 10.1C103.413 9.596 103.233 9.192 102.881 8.888C102.529 8.584 102.093 8.432 101.573 8.432C101.101 8.432 100.697 8.584 100.361 8.888C100.025 9.184 99.8251 9.588 99.7611 10.1H103.421ZM108.763 14.108C108.139 14.108 107.575 13.968 107.071 13.688C106.567 13.4 106.171 13 105.883 12.488C105.595 11.968 105.451 11.368 105.451 10.688C105.451 10.016 105.599 9.42 105.895 8.9C106.191 8.38 106.595 7.98 107.107 7.7C107.619 7.42 108.191 7.28 108.823 7.28C109.455 7.28 110.027 7.42 110.539 7.7C111.051 7.98 111.455 8.38 111.751 8.9C112.047 9.42 112.195 10.016 112.195 10.688C112.195 11.36 112.043 11.956 111.739 12.476C111.435 12.996 111.019 13.4 110.491 13.688C109.971 13.968 109.395 14.108 108.763 14.108ZM108.763 12.92C109.115 12.92 109.443 12.836 109.747 12.668C110.059 12.5 110.311 12.248 110.503 11.912C110.695 11.576 110.791 11.168 110.791 10.688C110.791 10.208 110.699 9.804 110.515 9.476C110.331 9.14 110.087 8.888 109.783 8.72C109.479 8.552 109.151 8.468 108.799 8.468C108.447 8.468 108.119 8.552 107.815 8.72C107.519 8.888 107.283 9.14 107.107 9.476C106.931 9.804 106.843 10.208 106.843 10.688C106.843 11.4 107.023 11.952 107.383 12.344C107.751 12.728 108.211 12.92 108.763 12.92Z" fill="#010101"/>
<path d="M12.5 6.66667H12.5083M2.5 5C2.5 4.33696 2.76339 3.70107 3.23223 3.23223C3.70107 2.76339 4.33696 2.5 5 2.5H15C15.663 2.5 16.2989 2.76339 16.7678 3.23223C17.2366 3.70107 17.5 4.33696 17.5 5V15C17.5 15.663 17.2366 16.2989 16.7678 16.7678C16.2989 17.2366 15.663 17.5 15 17.5H5C4.33696 17.5 3.70107 17.2366 3.23223 16.7678C2.76339 16.2989 2.5 15.663 2.5 15V5Z" stroke="black" stroke-width="2" stroke-linecap="round" stroke-linejoin="round"/>
<path d="M2.5 13.3332L6.66667 9.16652C7.44 8.42236 8.39333 8.42236 9.16667 9.16652L13.3333 13.3332" stroke="black" stroke-width="2" stroke-linecap="round" stroke-linejoin="round"/>
<path d="M11.6666 11.6668L12.5 10.8335C13.2733 10.0893 14.2266 10.0893 15 10.8335L17.5 13.3335" stroke="black" stroke-width="2" stroke-linecap="round" stroke-linejoin="round"/>
</svg>
