<svg width="102" height="102" viewBox="0 0 102 102" fill="none" xmlns="http://www.w3.org/2000/svg">
<path d="M101 51C101 78.6142 78.6142 101 51 101C23.3858 101 1 78.6142 1 51C1 23.3858 23.3858 1 51 1C78.6142 1 101 23.3858 101 51Z" fill="#71C2BC" fill-opacity="0.1" stroke="#71C2BC" stroke-width="2" stroke-linecap="round" stroke-dasharray="4 4"/>
<path d="M51 30.6875C51.4144 30.6875 51.8118 30.8521 52.1049 31.1451C52.3979 31.4382 52.5625 31.8356 52.5625 32.25V49.4375H69.75C70.1644 49.4375 70.5618 49.6021 70.8549 49.8951C71.1479 50.1882 71.3125 50.5856 71.3125 51C71.3125 51.4144 71.1479 51.8118 70.8549 52.1049C70.5618 52.3979 70.1644 52.5625 69.75 52.5625H52.5625V69.75C52.5625 70.1644 52.3979 70.5618 52.1049 70.8549C51.8118 71.1479 51.4144 71.3125 51 71.3125C50.5856 71.3125 50.1882 71.1479 49.8951 70.8549C49.6021 70.5618 49.4375 70.1644 49.4375 69.75V52.5625H32.25C31.8356 52.5625 31.4382 52.3979 31.1451 52.1049C30.8521 51.8118 30.6875 51.4144 30.6875 51C30.6875 50.5856 30.8521 50.1882 31.1451 49.8951C31.4382 49.6021 31.8356 49.4375 32.25 49.4375H49.4375V32.25C49.4375 31.8356 49.6021 31.4382 49.8951 31.1451C50.1882 30.8521 50.5856 30.6875 51 30.6875Z" fill="#71C2BC"/>
</svg>
