<svg width="30" height="30" viewBox="0 0 30 30" fill="none" xmlns="http://www.w3.org/2000/svg">
<g opacity="0.7">
<path d="M18.375 16.8751C17 14.3751 16.5738 13.7501 15 13.7501C13.4263 13.7501 12.83 14.6939 11.455 17.1839C10.2775 19.3126 7.89752 19.4901 7.30377 21.2976C7.18252 21.6289 7.12252 22.1439 7.12502 22.5001C7.12502 23.9701 8.10877 25.0001 9.37502 25.0001C10.9488 25.0001 13.125 23.7501 15 23.7501C16.875 23.7501 19.0513 25.0001 20.625 25.0001C21.8913 25.0001 22.875 23.9714 22.875 22.5001C22.875 22.1439 22.8138 21.6289 22.6925 21.2976C22.0988 19.4839 19.5525 19.0039 18.375 16.8751ZM25.235 10.1026C25.0749 10.0334 24.902 9.99849 24.7275 10.0001H24.7088C23.79 10.0151 22.7588 10.9376 22.2175 12.3326C21.5688 14.0014 21.8675 15.7076 22.89 16.1476C23.0534 16.2159 23.2225 16.2501 23.3975 16.2501C24.3213 16.2501 25.3663 15.3226 25.9113 13.9176C26.5563 12.2489 26.2513 10.5426 25.235 10.1026ZM11.8425 11.2501C11.9113 11.2501 11.9788 11.2501 12.0463 11.2364C13.2263 11.0764 13.9625 9.55386 13.6963 7.83386C13.4425 6.21261 12.3875 5.00011 11.2813 5.00011C11.2125 5.00011 11.145 5.00011 11.0775 5.01386C9.89752 5.17386 9.16127 6.69636 9.42752 8.41636C9.68252 10.0326 10.7375 11.2501 11.8438 11.2501H11.8425ZM20.57 8.41636C20.8375 6.69636 20.1013 5.17386 18.92 5.01386C18.853 5.0038 18.7853 4.9992 18.7175 5.00011C17.6113 5.00011 16.5575 6.21261 16.305 7.83386C16.0375 9.55386 16.7738 11.0764 17.955 11.2364C18.0225 11.2447 18.09 11.2493 18.1575 11.2501C19.2638 11.2501 20.32 10.0326 20.57 8.41636ZM7.11252 16.1476C8.13252 15.7076 8.43002 13.9989 7.78252 12.3326C7.23752 10.9276 6.19377 10.0001 5.27127 10.0001C5.09544 10.0001 4.92586 10.0343 4.76252 10.1026C3.74252 10.5426 3.44502 12.2514 4.09252 13.9176C4.63752 15.3226 5.68127 16.2501 6.60377 16.2501C6.77961 16.2501 6.94919 16.2159 7.11252 16.1476Z" stroke="#71C2BC" stroke-width="2" stroke-linecap="round" stroke-linejoin="round"/>
</g>
</svg>
