<svg width="28" height="28" viewBox="0 0 28 28" fill="none" xmlns="http://www.w3.org/2000/svg">
<path d="M23.3333 14.3203C23.3333 14.7633 23.0041 15.1294 22.577 15.1873L22.4583 15.1953L4.95825 15.1953C4.475 15.1953 4.08325 14.8036 4.08325 14.3203C4.08325 13.8773 4.41243 13.5112 4.83952 13.4533L4.95825 13.4453L22.4583 13.4453C22.9415 13.4453 23.3333 13.8371 23.3333 14.3203Z" fill="#212121"/>
<path d="M12.6337 20.7291C12.9762 21.0701 12.9774 21.6241 12.6364 21.9665C12.3264 22.2779 11.8404 22.3071 11.4973 22.0537L11.399 21.9692L4.34064 14.9412C4.0284 14.6303 3.99999 14.1425 4.25544 13.7994L4.34059 13.7012L11.3989 6.67199C11.7413 6.33099 12.2954 6.33214 12.6364 6.67456C12.9464 6.98584 12.9736 7.47201 12.7187 7.81403L12.6338 7.91199L6.19842 14.3215L12.6337 20.7291Z" fill="#212121"/>
</svg>
