<svg width="16" height="16" viewBox="0 0 16 16" fill="none" xmlns="http://www.w3.org/2000/svg">
<g clip-path="url(#clip0_1_5925)">
<path fill-rule="evenodd" clip-rule="evenodd" d="M8.47221 10.4712C8.34719 10.5962 8.17766 10.6664 8.00088 10.6664C7.8241 10.6664 7.65456 10.5962 7.52955 10.4712L3.75821 6.6999C3.69454 6.63841 3.64375 6.56484 3.60881 6.48351C3.57387 6.40217 3.55548 6.31469 3.55471 6.22617C3.55394 6.13765 3.57081 6.04986 3.60433 5.96793C3.63785 5.886 3.68735 5.81157 3.74995 5.74897C3.81254 5.68638 3.88698 5.63688 3.96891 5.60336C4.05084 5.56983 4.13863 5.55297 4.22715 5.55374C4.31567 5.55451 4.40315 5.5729 4.48448 5.60784C4.56582 5.64277 4.63938 5.69356 4.70088 5.75724L8.00088 9.05724L11.3009 5.75724C11.4266 5.6358 11.595 5.5686 11.7698 5.57012C11.9446 5.57164 12.1118 5.64175 12.2354 5.76536C12.359 5.88896 12.4291 6.05617 12.4307 6.23097C12.4322 6.40577 12.365 6.57417 12.2435 6.6999L8.47221 10.4712Z" fill="black"/>
</g>
<defs>
<clipPath id="clip0_1_5925">
<rect width="16" height="16" fill="white"/>
</clipPath>
</defs>
</svg>
