<svg width="15" height="15" viewBox="0 0 15 15" fill="none" xmlns="http://www.w3.org/2000/svg">
<path d="M6.69644 7.5C6.69644 7.71312 6.7811 7.91751 6.9318 8.06821C7.08249 8.21891 7.28688 8.30357 7.5 8.30357C7.71312 8.30357 7.91751 8.21891 8.0682 8.06821C8.2189 7.91751 8.30356 7.71312 8.30356 7.5C8.30356 7.28688 8.2189 7.08249 8.0682 6.93179C7.91751 6.78109 7.71312 6.69643 7.5 6.69643C7.28688 6.69643 7.08249 6.78109 6.9318 6.93179C6.7811 7.08249 6.69644 7.28688 6.69644 7.5ZM10.0446 7.5C10.0446 7.71312 10.1293 7.91751 10.28 8.06821C10.4307 8.21891 10.6351 8.30357 10.8482 8.30357C11.0613 8.30357 11.2657 8.21891 11.4164 8.06821C11.5671 7.91751 11.6517 7.71312 11.6517 7.5C11.6517 7.28688 11.5671 7.08249 11.4164 6.93179C11.2657 6.78109 11.0613 6.69643 10.8482 6.69643C10.6351 6.69643 10.4307 6.78109 10.28 6.93179C10.1293 7.08249 10.0446 7.28688 10.0446 7.5ZM3.34827 7.5C3.34827 7.71312 3.43293 7.91751 3.58363 8.06821C3.73432 8.21891 3.93871 8.30357 4.15183 8.30357C4.36495 8.30357 4.56934 8.21891 4.72003 8.06821C4.87073 7.91751 4.95539 7.71312 4.95539 7.5C4.95539 7.28688 4.87073 7.08249 4.72003 6.93179C4.56934 6.78109 4.36495 6.69643 4.15183 6.69643C3.93871 6.69643 3.73432 6.78109 3.58363 6.93179C3.43293 7.08249 3.34827 7.28688 3.34827 7.5ZM14.4173 4.59375C14.039 3.69475 13.4966 2.88783 12.8052 2.19475C12.1186 1.5057 11.3036 0.95798 10.4062 0.582589C9.48547 0.195871 8.5078 0 7.5 0H7.46652C6.45202 0.00502232 5.46933 0.205915 4.54524 0.601004C3.65557 0.980244 2.84817 1.52894 2.16804 2.21652C1.48334 2.90792 0.945954 3.7115 0.574307 4.60714C0.189267 5.5346 -0.00492728 6.52065 9.49754e-05 7.53516C0.00577557 8.69777 0.280826 9.84326 0.803656 10.8817V13.4263C0.803656 13.6306 0.88479 13.8265 1.02921 13.9709C1.17363 14.1153 1.3695 14.1964 1.57374 14.1964H4.12002C5.15845 14.7193 6.30392 14.9943 7.46652 15H7.50168C8.50445 15 9.4771 14.8058 10.3928 14.4258C11.2857 14.0549 12.0977 13.5135 12.7834 12.832C13.4748 12.1473 14.0189 11.3471 14.3989 10.4548C14.794 9.53069 14.9949 8.54799 14.9999 7.53348C15.0049 6.51395 14.8074 5.52455 14.4173 4.59375ZM11.8878 11.9263C10.7142 13.0882 9.15735 13.7277 7.5 13.7277H7.47154C6.46207 13.7227 5.45929 13.4715 4.5737 12.9994L4.43307 12.9241H2.07596V10.567L2.00063 10.4263C1.52854 9.54074 1.27742 8.53795 1.2724 7.52846C1.2657 5.85938 1.90353 4.29241 3.07372 3.11216C4.24223 1.93192 5.80415 1.27902 7.47322 1.27232H7.50168C8.33872 1.27232 9.15065 1.43471 9.91571 1.75614C10.6623 2.0692 11.332 2.51953 11.9079 3.09542C12.4821 3.66964 12.9341 4.34096 13.2471 5.08761C13.5719 5.86105 13.7343 6.68136 13.731 7.52846C13.7209 9.19587 13.0663 10.7578 11.8878 11.9263Z" fill="black"/>
</svg>
