<svg width="40" height="40" viewBox="0 0 40 40" fill="none" xmlns="http://www.w3.org/2000/svg">
<circle cx="20" cy="20" r="20" fill="black" fill-opacity="0.05"/>
<path d="M25.9999 17V21L27.3799 22.38C27.6768 22.6765 27.879 23.0544 27.9609 23.4659C28.0429 23.8774 28.0009 24.3039 27.8403 24.6916C27.6797 25.0792 27.4077 25.4104 27.0587 25.6433C26.7097 25.8762 26.2995 26.0004 25.8799 26H14.1199C13.7003 26.0004 13.2901 25.8762 12.9411 25.6433C12.5922 25.4104 12.3201 25.0792 12.1595 24.6916C11.9989 24.3039 11.9569 23.8774 12.0389 23.4659C12.1208 23.0544 12.3231 22.6765 12.6199 22.38L13.9999 21V17C13.9999 15.4087 14.6321 13.8826 15.7573 12.7574C16.8825 11.6322 18.4086 11 19.9999 11C21.0059 10.9981 21.9963 11.2491 22.8799 11.73" stroke="black" stroke-width="1.5" stroke-linecap="round" stroke-linejoin="round"/>
<path d="M23 26H17C17 26.7956 17.3161 27.5587 17.8787 28.1213C18.4413 28.6839 19.2044 29 20 29C20.7956 29 21.5587 28.6839 22.1213 28.1213C22.6839 27.5587 23 26.7956 23 26ZM22 14C22 14.7956 22.3161 15.5587 22.8787 16.1213C23.4413 16.6839 24.2044 17 25 17C25.7956 17 26.5587 16.6839 27.1213 16.1213C27.6839 15.5587 28 14.7956 28 14C28 13.2044 27.6839 12.4413 27.1213 11.8787C26.5587 11.3161 25.7956 11 25 11C24.2044 11 23.4413 11.3161 22.8787 11.8787C22.3161 12.4413 22 13.2044 22 14Z" stroke="black" stroke-width="1.5" stroke-linecap="round" stroke-linejoin="round"/>
</svg>
