<svg width="40" height="40" viewBox="0 0 40 40" fill="none" xmlns="http://www.w3.org/2000/svg">
<g clip-path="url(#clip0_296_279)">
<g filter="url(#filter0_d_296_279)">
<circle cx="20" cy="20" r="20" fill="#71C2BC" fill-opacity="0.14" shape-rendering="crispEdges"/>
</g>
<path d="M20 9.92871C22.2164 9.92871 24.3421 10.8092 25.9094 12.3765C27.4766 13.9437 28.3571 16.0694 28.3571 18.2859C28.3571 21.8173 25.8757 25.6659 20.9771 29.8727C20.7047 30.1067 20.3574 30.2352 19.9984 30.2349C19.6393 30.2346 19.2922 30.1055 19.0203 29.871L18.6963 29.5899C14.0145 25.4927 11.6428 21.7384 11.6428 18.2859C11.6428 16.0694 12.5233 13.9437 14.0906 12.3765C15.6578 10.8092 17.7835 9.92871 20 9.92871ZM20 15.0716C19.1475 15.0716 18.3299 15.4102 17.7271 16.013C17.1243 16.6158 16.7857 17.4334 16.7857 18.2859C16.7857 19.1383 17.1243 19.9559 17.7271 20.5587C18.3299 21.1615 19.1475 21.5001 20 21.5001C20.8524 21.5001 21.67 21.1615 22.2728 20.5587C22.8756 19.9559 23.2143 19.1383 23.2143 18.2859C23.2143 17.4334 22.8756 16.6158 22.2728 16.013C21.67 15.4102 20.8524 15.0716 20 15.0716Z" fill="#71C2BC"/>
</g>
<defs>
<filter id="filter0_d_296_279" x="-70" y="-65" width="180" height="180" filterUnits="userSpaceOnUse" color-interpolation-filters="sRGB">
<feFlood flood-opacity="0" result="BackgroundImageFix"/>
<feColorMatrix in="SourceAlpha" type="matrix" values="0 0 0 0 0 0 0 0 0 0 0 0 0 0 0 0 0 0 127 0" result="hardAlpha"/>
<feOffset dy="5"/>
<feGaussianBlur stdDeviation="35"/>
<feComposite in2="hardAlpha" operator="out"/>
<feColorMatrix type="matrix" values="0 0 0 0 0 0 0 0 0 0 0 0 0 0 0 0 0 0 0.03 0"/>
<feBlend mode="normal" in2="BackgroundImageFix" result="effect1_dropShadow_296_279"/>
<feBlend mode="normal" in="SourceGraphic" in2="effect1_dropShadow_296_279" result="shape"/>
</filter>
<clipPath id="clip0_296_279">
<rect width="40" height="40" fill="white"/>
</clipPath>
</defs>
</svg>
