<svg width="50" height="50" viewBox="0 0 50 50" fill="none" xmlns="http://www.w3.org/2000/svg">
<circle cx="25" cy="25" r="25" fill="#71C2BC"/>
<g clip-path="url(#clip0_1_8105)">
<path d="M22.9999 35.6668C22.9999 36.1973 23.2106 36.706 23.5857 37.081C23.9608 37.4561 24.4695 37.6668 24.9999 37.6668C25.5304 37.6668 26.0391 37.4561 26.4141 37.081C26.7892 36.706 26.9999 36.1973 26.9999 35.6668V27.0002H35.6666C36.197 27.0002 36.7057 26.7894 37.0808 26.4144C37.4559 26.0393 37.6666 25.5306 37.6666 25.0002C37.6666 24.4697 37.4559 23.961 37.0808 23.5859C36.7057 23.2109 36.197 23.0002 35.6666 23.0002H26.9999V14.3335C26.9999 13.8031 26.7892 13.2944 26.4141 12.9193C26.0391 12.5442 25.5304 12.3335 24.9999 12.3335C24.4695 12.3335 23.9608 12.5442 23.5857 12.9193C23.2106 13.2944 22.9999 13.8031 22.9999 14.3335V23.0002H14.3333C13.8028 23.0002 13.2941 23.2109 12.919 23.5859C12.544 23.961 12.3333 24.4697 12.3333 25.0002C12.3333 25.5306 12.544 26.0393 12.919 26.4144C13.2941 26.7894 13.8028 27.0002 14.3333 27.0002H22.9999V35.6668Z" fill="white"/>
</g>
<defs>
<clipPath id="clip0_1_8105">
<rect width="32" height="32" fill="white" transform="translate(9 9)"/>
</clipPath>
</defs>
</svg>
